<mxfile host="65bd71144e">
    <diagram id="LMq2UV9fvD7WIYkg8hmm" name="Deployment Diagram">
        <mxGraphModel dx="1008" dy="607" grid="1" gridSize="10" guides="1" tooltips="1" connect="1" arrows="1" fold="1" page="1" pageScale="1" pageWidth="850" pageHeight="1100" math="0" shadow="0">
            <root>
                <mxCell id="0"/>
                <mxCell id="1" parent="0"/>
                <mxCell id="71" value="" style="group" parent="1" vertex="1" connectable="0">
                    <mxGeometry x="610" y="288" width="160" height="220" as="geometry"/>
                </mxCell>
                <mxCell id="72" value="" style="group" parent="71" vertex="1" connectable="0">
                    <mxGeometry width="160" height="130" as="geometry"/>
                </mxCell>
                <mxCell id="73" value="Administrative &lt;br&gt;Academic API" style="verticalAlign=top;align=center;shape=cube;size=10;direction=south;fontStyle=0;html=1;boundedLbl=1;spacingLeft=5;container=0;" parent="72" vertex="1">
                    <mxGeometry width="160" height="130" as="geometry"/>
                </mxCell>
                <mxCell id="74" value="&amp;lt;&amp;lt;artifact&amp;gt;&amp;gt;&lt;br&gt;&lt;br&gt;&lt;b&gt;NodeJS RESTful API&lt;/b&gt;" style="html=1;align=center;verticalAlign=middle;dashed=0;fontSize=12;" parent="72" vertex="1">
                    <mxGeometry x="20" y="50" width="120" height="60" as="geometry"/>
                </mxCell>
                <mxCell id="75" value="MongoDB" style="shape=cylinder3;whiteSpace=wrap;html=1;boundedLbl=1;backgroundOutline=1;size=15;fontSize=12;" parent="71" vertex="1">
                    <mxGeometry x="40" y="160" width="80" height="60" as="geometry"/>
                </mxCell>
                <mxCell id="76" value="" style="edgeStyle=none;html=1;fontSize=12;endArrow=none;endFill=0;" parent="71" source="73" target="75" edge="1">
                    <mxGeometry relative="1" as="geometry"/>
                </mxCell>
                <mxCell id="88" value="" style="group" parent="1" vertex="1" connectable="0">
                    <mxGeometry x="80" y="611" width="160" height="130" as="geometry"/>
                </mxCell>
                <mxCell id="89" value="Academic Web App" style="verticalAlign=top;align=center;shape=cube;size=10;direction=south;fontStyle=0;html=1;boundedLbl=1;spacingLeft=5;container=0;" parent="88" vertex="1">
                    <mxGeometry width="160" height="130" as="geometry"/>
                </mxCell>
                <mxCell id="90" value="&amp;lt;&amp;lt;artifact&amp;gt;&amp;gt;&lt;br&gt;&lt;br&gt;&lt;b&gt;ReactClientApp&lt;/b&gt;" style="html=1;align=center;verticalAlign=middle;dashed=0;fontSize=12;" parent="88" vertex="1">
                    <mxGeometry x="20" y="50" width="120" height="60" as="geometry"/>
                </mxCell>
                <mxCell id="94" value="" style="group" parent="1" vertex="1" connectable="0">
                    <mxGeometry x="350" y="463" width="160" height="130" as="geometry"/>
                </mxCell>
                <mxCell id="26" value="Azure Application Gateway" style="verticalAlign=top;align=center;shape=cube;size=10;direction=south;fontStyle=0;html=1;boundedLbl=1;spacingLeft=5;container=0;" parent="94" vertex="1">
                    <mxGeometry width="160" height="130" as="geometry"/>
                </mxCell>
                <mxCell id="27" value="&amp;lt;&amp;lt;artifact&amp;gt;&amp;gt;&lt;br&gt;&lt;br&gt;&lt;b&gt;Gateway&lt;/b&gt;" style="html=1;align=center;verticalAlign=middle;dashed=0;fontSize=12;container=0;" parent="94" vertex="1">
                    <mxGeometry x="20" y="45" width="120" height="60" as="geometry"/>
                </mxCell>
                <mxCell id="95" value="" style="group" parent="1" vertex="1" connectable="0">
                    <mxGeometry x="80" y="316" width="160" height="130" as="geometry"/>
                </mxCell>
                <mxCell id="40" value="Administrative Web App" style="verticalAlign=top;align=center;shape=cube;size=10;direction=south;fontStyle=0;html=1;boundedLbl=1;spacingLeft=5;container=0;" parent="95" vertex="1">
                    <mxGeometry width="160" height="130" as="geometry"/>
                </mxCell>
                <mxCell id="41" value="&amp;lt;&amp;lt;artifact&amp;gt;&amp;gt;&lt;br&gt;&lt;br&gt;&lt;b&gt;ReactClientApp&lt;/b&gt;" style="html=1;align=center;verticalAlign=middle;dashed=0;fontSize=12;container=0;" parent="95" vertex="1">
                    <mxGeometry x="20" y="50" width="120" height="60" as="geometry"/>
                </mxCell>
                <mxCell id="122" value="" style="group" parent="1" vertex="1" connectable="0">
                    <mxGeometry x="80" y="466" width="160" height="130" as="geometry"/>
                </mxCell>
                <mxCell id="123" value="Landing Web App" style="verticalAlign=top;align=center;shape=cube;size=10;direction=south;fontStyle=0;html=1;boundedLbl=1;spacingLeft=5;container=0;" parent="122" vertex="1">
                    <mxGeometry width="160" height="130" as="geometry"/>
                </mxCell>
                <mxCell id="124" value="&amp;lt;&amp;lt;artifact&amp;gt;&amp;gt;&lt;br&gt;&lt;br&gt;&lt;b&gt;ReactClientApp&lt;/b&gt;" style="html=1;align=center;verticalAlign=middle;dashed=0;fontSize=12;container=0;" parent="122" vertex="1">
                    <mxGeometry x="20" y="50" width="120" height="60" as="geometry"/>
                </mxCell>
                <mxCell id="126" style="edgeStyle=none;html=1;exitX=0.506;exitY=-0.007;exitDx=0;exitDy=0;exitPerimeter=0;entryX=0;entryY=0;entryDx=70;entryDy=160;entryPerimeter=0;endArrow=none;endFill=0;" parent="1" source="123" target="26" edge="1">
                    <mxGeometry relative="1" as="geometry"/>
                </mxCell>
                <mxCell id="127" style="edgeStyle=none;html=1;exitX=0;exitY=0;exitDx=60;exitDy=0;exitPerimeter=0;entryX=0;entryY=0;entryDx=70;entryDy=160;entryPerimeter=0;endArrow=none;endFill=0;" parent="1" source="40" target="26" edge="1">
                    <mxGeometry relative="1" as="geometry">
                        <Array as="points">
                            <mxPoint x="297" y="376"/>
                            <mxPoint x="297" y="533"/>
                        </Array>
                    </mxGeometry>
                </mxCell>
                <mxCell id="128" style="edgeStyle=none;html=1;exitX=0;exitY=0;exitDx=60;exitDy=0;exitPerimeter=0;entryX=0;entryY=0;entryDx=70;entryDy=160;entryPerimeter=0;endArrow=none;endFill=0;" parent="1" source="89" target="26" edge="1">
                    <mxGeometry relative="1" as="geometry">
                        <Array as="points">
                            <mxPoint x="297" y="671"/>
                            <mxPoint x="297" y="533"/>
                        </Array>
                    </mxGeometry>
                </mxCell>
                <mxCell id="132" value="" style="group" parent="1" vertex="1" connectable="0">
                    <mxGeometry x="610" y="593" width="160" height="220" as="geometry"/>
                </mxCell>
                <mxCell id="133" value="" style="group" parent="132" vertex="1" connectable="0">
                    <mxGeometry width="160" height="130" as="geometry"/>
                </mxCell>
                <mxCell id="134" value="Notifications&lt;br&gt;Formats API" style="verticalAlign=top;align=center;shape=cube;size=10;direction=south;fontStyle=0;html=1;boundedLbl=1;spacingLeft=5;container=0;" parent="133" vertex="1">
                    <mxGeometry width="160" height="130" as="geometry"/>
                </mxCell>
                <mxCell id="135" value="&amp;lt;&amp;lt;artifact&amp;gt;&amp;gt;&lt;br&gt;&lt;br&gt;&lt;b&gt;NodeJS RESTful API&lt;/b&gt;" style="html=1;align=center;verticalAlign=middle;dashed=0;fontSize=12;" parent="133" vertex="1">
                    <mxGeometry x="20" y="50" width="120" height="60" as="geometry"/>
                </mxCell>
                <mxCell id="136" value="MySQL" style="shape=cylinder3;whiteSpace=wrap;html=1;boundedLbl=1;backgroundOutline=1;size=15;fontSize=12;" parent="132" vertex="1">
                    <mxGeometry x="40" y="160" width="80" height="60" as="geometry"/>
                </mxCell>
                <mxCell id="137" value="" style="edgeStyle=none;html=1;fontSize=12;endArrow=none;endFill=0;" parent="132" source="134" target="136" edge="1">
                    <mxGeometry relative="1" as="geometry"/>
                </mxCell>
                <mxCell id="138" style="edgeStyle=none;html=1;exitX=0;exitY=0;exitDx=60;exitDy=0;exitPerimeter=0;entryX=0;entryY=0;entryDx=70;entryDy=160;entryPerimeter=0;" parent="1" source="26" target="73" edge="1">
                    <mxGeometry relative="1" as="geometry">
                        <Array as="points">
                            <mxPoint x="570" y="523"/>
                            <mxPoint x="570" y="358"/>
                        </Array>
                    </mxGeometry>
                </mxCell>
                <mxCell id="139" style="edgeStyle=none;html=1;exitX=0;exitY=0;exitDx=60;exitDy=0;exitPerimeter=0;entryX=0;entryY=0;entryDx=70;entryDy=160;entryPerimeter=0;" parent="1" source="26" target="134" edge="1">
                    <mxGeometry relative="1" as="geometry">
                        <Array as="points">
                            <mxPoint x="570" y="523"/>
                            <mxPoint x="570" y="663"/>
                        </Array>
                    </mxGeometry>
                </mxCell>
            </root>
        </mxGraphModel>
    </diagram>
</mxfile>